<?xml version="1.0" encoding="utf-8"?>
<!-- Svg Vector Icons : http://www.onlinewebfonts.com/icon -->
<!DOCTYPE svg PUBLIC "-//W3C//DTD SVG 1.1//EN" "http://www.w3.org/Graphics/SVG/1.1/DTD/svg11.dtd">
<svg version="1.1" xmlns="http://www.w3.org/2000/svg" xmlns:xlink="http://www.w3.org/1999/xlink" x="0px" y="0px" viewBox="0 0 1000 1000" enable-background="new 0 0 1000 1000" xml:space="preserve">
<metadata> Svg Vector Icons : http://www.onlinewebfonts.com/icon </metadata>
<g><g transform="translate(0.000000,511.000000) scale(0.100000,-0.100000)"><path d="M3916.9,4163.1c-8.7-13-1130.1-2801.4-1182.3-2934c-8.7-21.7,106.5-28.2,534.6-28.2c399.9,0,545.5-6.5,545.5-26.1c0-13-241.2-656.3-534.6-1427.9c-295.6-771.5-541.2-1417-547.7-1430c-6.5-21.7,119.5-28.3,591.1-28.3h599.8l4.4-1123.6l6.5-1123.6l1006.2,1612.6C5492.5-1457,5944.6-726.8,5944.6-722.5c0,6.5-263,10.9-586.8,10.9c-321.7,0-586.8,4.4-586.8,10.9s454.2,665,1008.4,1462.6l1008.4,1449.6l-575.9,6.5c-445.5,4.3-573.8,10.9-565.1,32.6c6.5,13,189.1,447.7,404.2,965c217.4,517.2,393.4,945.4,393.4,951.9C6444.4,4184.8,3927.7,4180.5,3916.9,4163.1z"/><path d="M294,2152.8c-100-69.5-154.3-147.8-176-258.6c-23.9-123.9-23.9-4522.6,0-4646.5c21.7-104.3,71.7-182.5,163-249.9c58.7-45.6,82.6-45.6,1547.4-52.1l1486.5-4.4v369.5v369.5H2086.9H859v1890.8v1890.8l665,4.4l665,6.5l139.1,347.7c76.1,191.3,139.1,354.2,139.1,362.9c0,8.7-473.8,17.4-1051.9,17.4H365.7L294,2152.8z"/><path d="M7281.2,1837.7l-252.1-365.1l684.6-6.5l686.8-4.4V-429.1v-1890.8H7044.3H5686l-226-362.9l-226-365.1l1795.2-6.5c1212.7-4.4,1821.2,2.2,1875.6,17.4c95.6,28.3,202.1,143.4,232.5,254.3c13,47.8,23.9,321.7,23.9,649.8v569.4l267.3,6.5c236.9,8.7,273.8,15.2,336.9,58.7c136.9,97.8,134.7,84.8,134.7,1075.8c0,899.7,0,899.7-50,973.6c-80.4,121.7-165.2,150-443.4,150h-245.6l-2.2,593.3c-2.2,695.5-13,749.8-193.4,860.6c-73.9,43.5-100,45.6-754.1,45.6h-678.1L7281.2,1837.7z"/></g></g>
</svg>