<svg version="1.1" xmlns="http://www.w3.org/2000/svg" xmlns:xlink="http://www.w3.org/1999/xlink" width="175.125" height="52.287"><defs><linearGradient x1="181.01815" y1="176.9307" x2="356.14242" y2="176.9307" gradientUnits="userSpaceOnUse" id="color-1"><stop offset="0" stop-color="#27aae1"/><stop offset="1" stop-color="#115489"/></linearGradient><linearGradient x1="185.52074" y1="176.9307" x2="349.38856" y2="176.9307" gradientUnits="userSpaceOnUse" id="color-2"><stop offset="0" stop-color="#2f7eba"/><stop offset="0.506" stop-color="#3f9dd6"/><stop offset="1" stop-color="#3e97d1"/></linearGradient></defs><g transform="translate(-181.018,-150.787)"><g data-paper-data="{&quot;isPaintingLayer&quot;:true}" fill="none" fill-rule="nonzero" stroke="none" stroke-width="1" stroke-linecap="butt" stroke-linejoin="miter" stroke-miterlimit="10" stroke-dasharray="" stroke-dashoffset="0" font-family="none" font-weight="none" font-size="none" text-anchor="none" style="mix-blend-mode: normal"><path d="M356.143,176.93c0,14.416 -17.11701,26.144 -38.1539,26.144h-98.81866c-21.03689,0 -38.15244,-11.727 -38.15244,-26.144c0,-14.415 17.11409,-26.143 38.15244,-26.143h98.81866c21.03689,0 38.1539,11.728 38.1539,26.143z" data-paper-data="{&quot;origPos&quot;:null}" fill="url(#color-1)"/><path d="M349.389,176.93c0,11.952 -14.30314,21.641 -31.9488,21.641h-99.96992c-17.64566,0 -31.95028,-9.689 -31.95028,-21.641v0c0,-11.951 14.30462,-21.64 31.95028,-21.64h99.96992c17.64566,0 31.9488,9.689 31.9488,21.64z" data-paper-data="{&quot;origPos&quot;:null}" fill="url(#color-2)"/><text transform="translate(217.393,182.4305) scale(0.5,0.5)" font-size="40" xml:space="preserve" data-paper-data="{&quot;origPos&quot;:null}" fill="#fafafa" fill-rule="nonzero" stroke="none" stroke-width="1" stroke-linecap="butt" stroke-linejoin="miter" stroke-miterlimit="10" stroke-dasharray="" stroke-dashoffset="0" font-family="Sans Serif" font-weight="normal" text-anchor="start" style="mix-blend-mode: normal"><tspan x="0" dy="0">Instructions</tspan></text></g></g></svg>